<svg id="Layer_1" enable-background="new 0 0 511.213 511.213" height="512" viewBox="0 0 511.213 511.213" width="512" xmlns="http://www.w3.org/2000/svg"><g><g fill="#ffe1b9"><path d="m327.64 404.212-51.118-51.118c-2.684-2.684-2.684-7.035 0-9.719l20.266-20.266c2.684-2.684 7.035-2.684 9.719 0l51.118 51.118c3.112 3.112 3.112 8.157 0 11.268l-18.717 18.717c-3.111 3.112-8.156 3.112-11.268 0z"/><path d="m291.598 428.14-42.683-42.683c-1.313-1.313-1.313-3.441 0-4.754l27.608-27.608 50.694 50.694-24.351 24.351c-3.112 3.112-8.157 3.112-11.268 0z"/><path d="m223.245 411.127 34.008 34.008c5.655 5.655 14.824 5.655 20.479 0l15.43-15.43-44.247-44.247z"/><path d="m377.396 334.028-34.155-34.155c-2.684-2.684-7.035-2.684-9.719 0l-25.126 25.126 49.254 49.254 19.745-19.745c5.656-5.656 5.656-14.825.001-20.48z"/><path d="m251.133 233.443 19.275-19.275"/><path d="m152.102 377.262 63.095-63.095"/><path d="m185.718 403.832 59.572-59.572"/><path d="m322.282 146.896 88.386 88.386-21.098 21.88c15.027 15.086 15.067 39.565-.098 54.68l-17.159 17.104-29.073-29.073c-2.684-2.684-7.035-2.684-9.719 0l-25.126 25.126-1.889-1.889c-2.684-2.684-7.035-2.684-9.719 0l-20.266 20.266c-2.676 2.676-2.691 7.028 0 9.719l-27.608 27.608c-1.311 1.311-1.315 3.439 0 4.754l-38.147 38.044c-2.421 2.414-6.339 2.411-8.756-.006l-17.978-17.978c-2.419 2.419-6.342 2.421-8.762 0l-21.331-21.331c-2.42-2.42-2.42-6.343 0-8.762l1.246-1.246-25.712-25.712c-2.42-2.42-2.42-6.343 0-8.762l85.723-85.723 1.224-20.537h34.712l-6.897 6.896v23.793c0 6.483 2.575 12.7 7.159 17.284 9.519 9.519 24.996 9.572 34.568 0 1.486-1.486 19.615-19.615 18.739-18.739 15.071-15.071 15.071-39.505 0-54.576l-37.677-37.677s21.582-9.258 35.582-3.258z"/></g><path d="m351.068 76.257h112.06v152.413h-112.06z" fill="#ff6a47" transform="matrix(.707 -.707 .707 .707 11.428 332.518)"/><path d="m27.909 96.433h152.413v112.06h-152.413z" fill="#e1fda0" transform="matrix(.707 -.707 .707 .707 -77.313 118.276)"/><path d="m251.133 233.443h-34.712l-1.224 20.538-75.22 75.22-1.811-1.811c-17.945-17.945-23.686-45.1-13.92-69.031l-23.394-23.394 88.069-88.069 23.26 23.26c23.131-10.507 50.677-5.514 68.624 13.126l23.897 24.819c15.029 15.029 15.112 39.464 0 54.576l-18.705 18.705c-9.565 9.565-25.072 9.565-34.636 0 0 0-7.125-6.783-7.125-17.249v-23.793z" fill="#ffe1b9"/><path d="m251.133 233.443 19.275-19.275" fill="#ffe1b9"/><path d="m152.102 377.262 63.095-63.095" fill="#ffe1b9"/><path d="m185.718 403.832 59.572-59.572" fill="#ffe1b9"/><path d="m296.522 353.095c-2.684-2.684-2.684-7.035 0-9.719l15.126-15.125-5.141-5.141c-2.684-2.684-7.035-2.684-9.719 0l-20.266 20.266c-2.684 2.684-2.684 7.035 0 9.719l51.118 51.117c3.112 3.112 8.157 3.112 11.268 0l4.366-4.366z" fill="#ffb680"/><path d="m268.914 385.457c-1.313-1.313-1.313-3.441 0-4.754l17.608-17.608-10-10-27.608 27.608c-1.313 1.313-1.313 3.441 0 4.754l42.683 42.683c3.112 3.112 8.157 3.112 11.268 0l4.366-4.366z" fill="#ffb680"/><path d="m243.245 411.127 15.67-15.67-10-10-25.67 25.67 34.008 34.007c5.578 5.578 14.568 5.643 20.24.217-.836-.799-10.775-10.751-34.248-34.224z" fill="#ffb680"/><path d="m328.397 324.999 19.985-19.985-5.141-5.141c-2.684-2.684-7.035-2.684-9.719 0l-25.126 25.126 49.254 49.254 10-10z" fill="#ffb680"/><path d="m271.133 233.443 19.275-19.275" fill="#ffe1b9"/><path d="m172.102 377.262 63.095-63.095" fill="#ffe1b9"/><path d="m205.718 403.832 59.572-59.572" fill="#ffe1b9"/><g><g><g><path d="m322.607 167.166 9.824-10.121-10.149-10.149-18.279 18.832c6.168-.918 12.994-.966 18.604 1.438z" fill="#ffb680"/></g><g><path d="m304.702 262.677-18.739 18.739c-2.166 2.166-4.646 3.814-7.284 4.997 8.988 4.031 19.904 2.383 27.284-4.997l18.739-18.739c15.071-15.071 15.071-39.505 0-54.576l-37.677-37.677s5.821-2.493 13.373-4.053c-13.947-4.272-33.373 4.053-33.373 4.053l37.677 37.677c15.071 15.071 15.071 39.505 0 54.576z" fill="#ffb680"/></g><g><path d="m363.241 299.873c-2.684-2.684-7.035-2.684-9.719 0l-5.141 5.141 23.932 23.933 10.016-9.984z" fill="#ffb680"/></g><g><path d="m204.033 405.517c-2.42 2.42-6.343 2.42-8.762 0l-21.331-21.331c-2.42-2.42-2.42-6.343 0-8.762l1.246-1.246-25.712-25.712c-2.42-2.42-2.42-6.343 0-8.762l85.723-85.723 1.224-20.537h-20l-1.224 20.537-85.723 85.723c-2.42 2.42-2.42 6.343 0 8.762l25.712 25.712-1.246 1.246c-2.42 2.42-2.42 6.343 0 8.762l21.331 21.331c2.42 2.42 6.343 2.42 8.762 0l17.978 17.978c2.417 2.417 6.336 2.42 8.756.006l5.632-5.617z" fill="#ffb680"/></g></g></g><path d="m333.593 138.197 69.238-69.239-10-10-79.238 79.239 107.772 107.772 10-10z" fill="#c51239"/><path d="m30.61 166.73 97.772-97.772-10-10-107.772 107.772 79.239 79.239 10-10z" fill="#69bdc6"/><g><g><g><path d="m232.181 170.156c4.866-2.21 9.914-3.722 15.016-4.578-6.46-1.081-13.099-1.121-19.654-.06z" fill="#ffb680"/></g><g><path d="m271.361 281.382s-7.125-6.783-7.125-17.249v-23.793l6.896-6.896h-20l-6.896 6.896v23.793c0 10.466 7.125 17.249 7.125 17.249 7.389 7.389 18.316 9.044 27.318 5.016-2.65-1.186-5.142-2.841-7.318-5.016z" fill="#ffb680"/></g><g><path d="m144.246 258.359-23.394-23.394 78.069-78.069-10-10-88.069 88.069 23.394 23.394c-9.677 23.715-4.192 50.92 13.92 69.031l1.811 1.811 10.752-10.752c-11.998-17.443-14.674-40.016-6.483-60.09z" fill="#ffb680"/></g></g></g><path d="m382.699 331.724-34.155-34.155c-5.604-5.603-14.722-5.603-20.325 0l-20.42 20.42c-5.425-2.575-11.943-1.554-16.313 2.816l-20.267 20.267c-3.658 3.659-4.911 8.813-3.792 13.511l-23.814 23.814c-2.013 2.012-3.239 4.769-3.171 7.925l-27.803 27.803 39.311 39.311c8.57 8.57 22.515 8.571 31.086 0l12.554-12.554c4.835.507 9.349-1.209 12.58-4.44l20.202-20.202c5.523 1.841 11.623.493 15.84-3.726l18.717-18.716c4.097-4.096 5.403-9.936 3.934-15.152l15.836-15.836c8.591-8.591 8.591-22.494 0-31.086zm-110.271 111.106c-2.722 2.722-7.151 2.722-9.873 0l-28.704-28.704 15.063-15.063 33.641 33.641zm25.134-16.994c-.189.186-.479.181-.661 0l-39.757-39.757 19.378-19.379 40.088 40.088zm54.76-42.644c-20.026 20.026-18.747 18.854-19.047 18.854-.316 0 3.516 3.709-51.005-50.811l19.378-19.378 50.674 50.674c.182.181.182.478 0 .661zm19.77-30.989-14.442 14.442-38.647-38.647 19.379-19.378 33.71 33.711c2.724 2.724 2.734 7.138 0 9.872z"/><g><path d="m399.277 314.939-12.04-8.946c9.019-12.136 8.095-29.426-2.98-40.53l10.621-10.593c16.499 16.544 17.705 42.162 4.399 60.069z"/></g><path d="m239.987 341.956c-.437.437-59.115 59.114-60.336 60.338l-19.487-19.488 60.337-60.336-10.606-10.606-54.707 54.707-3.577-3.577-10.606 10.606 4.466 4.466c-1.784 4.858-.729 10.531 3.164 14.424l21.33 21.33c5.328 5.329 14.013 5.364 19.383-.006l61.247-61.251z"/><g><path d="m421.367 259.572-118.376-118.376 89.834-89.845 23.124 23.11-10.604 10.61-12.516-12.509-68.625 68.633 97.163 97.164 68.633-68.633-74.046-74.047 10.606-10.606 84.653 84.653z"/></g><g><path d="m89.847 259.572-89.847-89.846 80.264-80.254 10.606 10.608-69.656 69.647 68.633 68.632 97.163-97.164-68.624-68.632-16.906 16.906-10.606-10.606 27.513-27.514 89.836 89.847z"/></g><g><path d="m438.565 197.536-10.607-10.607 10.606-10.606 10.607 10.607zm-31.82-31.82-10.607-10.606 10.606-10.606 10.607 10.606zm-31.82-31.82-10.606-10.606 10.606-10.606 10.606 10.606z" fill="#fff"/></g><path d="m310.062 205.844-23.852-24.76c-19.673-20.432-50.509-26.845-77.133-14.757l6.201 13.658c20.74-9.416 44.786-4.428 60.128 11.504 31.477 32.675 22.184 23.06 23.998 24.91 12.124 12.124 12.124 31.85.001 43.972l-18.714 18.704c-6.398 6.406-17.025 6.913-24.106-.077-.048-.048-4.848-4.901-4.848-11.862v-20.69c9.69-9.676 20.697-20.698 23.974-23.975l-10.606-10.606-17.082 17.082h-38.673l-1.471 24.741-67.75 67.75c-13.312-15.862-16.869-37.813-8.938-57.248l-13.888-5.668c-10.847 26.578-4.739 56.868 15.561 77.168l7.114 7.111 82.537-82.537.97-16.319h13.252v23.19c0 12.981 8.09 21.354 9.369 22.595 12.361 12.306 32.581 12.575 45.193-.05l18.711-18.702c17.955-17.953 17.971-47.157.052-65.134z"/><g><path d="m95.759 148.01h15v15h-15z" transform="matrix(.707 -.707 .707 .707 -79.718 118.563)"/></g></g></svg>