<?xml version="1.0" standalone="no"?>
<!DOCTYPE svg PUBLIC "-//W3C//DTD SVG 20010904//EN"
 "http://www.w3.org/TR/2001/REC-SVG-20010904/DTD/svg10.dtd">
<svg version="1.0" xmlns="http://www.w3.org/2000/svg"
 width="640.000000pt" height="1280.000000pt" viewBox="0 0 640.000000 1280.000000"
 preserveAspectRatio="xMidYMid meet">
<metadata>
Created by potrace 1.15, written by Peter Selinger 2001-2017
</metadata>
<g transform="translate(0.000000,1280.000000) scale(0.100000,-0.100000)"
fill="#000000" stroke="none">
<path d="M1288 12783 c-27 -33 -36 -66 -93 -348 -15 -71 -55 -256 -91 -410
-99 -437 -98 -429 -98 -820 0 -425 13 -572 120 -1315 84 -583 126 -825 225
-1285 113 -521 159 -779 208 -1145 70 -528 107 -853 131 -1165 11 -148 25
-308 30 -355 11 -98 25 -423 40 -938 11 -364 19 -486 64 -927 14 -132 30 -343
36 -470 6 -126 20 -396 30 -600 32 -604 40 -911 50 -1787 6 -589 12 -850 21
-891 23 -112 130 -196 302 -237 131 -32 363 -46 509 -32 259 26 343 80 377
242 22 105 31 452 30 1275 0 888 -7 1149 -38 1480 -50 514 -62 678 -71 955 -6
162 -18 489 -27 725 -27 682 -22 1037 27 1845 17 275 22 529 30 1645 12 1593
20 1930 45 1998 9 26 26 52 37 58 24 13 81 4 97 -15 23 -28 60 -246 126 -751
68 -525 112 -772 249 -1420 74 -350 101 -545 161 -1155 9 -85 20 -281 25 -435
12 -378 12 -1565 0 -1960 -7 -217 -7 -390 0 -540 5 -121 14 -510 20 -865 6
-355 15 -839 20 -1077 7 -302 7 -635 -1 -1103 -8 -515 -8 -683 1 -721 24 -98
126 -178 277 -216 56 -15 108 -18 303 -16 359 2 468 24 555 109 69 67 85 113
96 269 5 73 14 145 20 161 29 77 40 699 44 2469 2 1414 3 1461 65 2645 11 212
24 526 30 697 12 377 22 527 60 918 44 445 49 538 60 989 12 533 12 952 0
1148 -6 87 -35 404 -65 705 -30 302 -66 663 -80 803 -29 298 -74 641 -85 655
-4 6 -11 43 -14 83 -4 40 -25 184 -46 320 -22 136 -51 346 -66 467 -31 259
-45 318 -79 341 -23 15 -36 15 -177 -5 -84 -12 -277 -35 -428 -51 -318 -35
-338 -38 -565 -85 -244 -50 -458 -62 -867 -46 -313 11 -482 24 -548 41 -19 5
-96 14 -170 20 -284 23 -467 50 -732 109 -161 36 -160 36 -180 14z m2036 -344
c38 -30 56 -71 56 -129 0 -47 -4 -55 -44 -98 -41 -43 -49 -47 -91 -47 -41 0
-51 5 -80 37 -37 40 -51 89 -41 143 8 38 48 92 80 105 39 16 92 11 120 -11z
m-229 -447 c-7 -8 -35 7 -35 18 0 6 7 6 20 -2 10 -7 17 -14 15 -16z"/>
<path d="M3232 12338 c-14 -14 -16 -48 -3 -48 5 0 11 -9 14 -20 7 -26 35 -16
48 17 17 46 -26 84 -59 51z"/>
</g>
</svg>
